<svg xmlns:xlink="http://www.w3.org/1999/xlink" xmlns="http://www.w3.org/2000/svg" class="ic-24" width="24"  height="24" ><defs><symbol viewBox="0 0 24 24" id="ic-profile"><path d="M2 6a4 4 0 0 1 4-4h12a4 4 0 0 1 4 4v12a4 4 0 0 1-4 4H6a4 4 0 0 1-4-4V6zm7 3c0 1.653 1.343 3 3 3 1.653 0 3-1.343 3-3 0-1.653-1.343-3-3-3-1.653 0-3 1.343-3 3zm-3 8.01V21h12v-3.99c0-1.66-1.342-3.01-2.997-3.01H8.997A3.003 3.003 0 0 0 6 17.01zM6 18h12v3H6v-3z" fill-rule="evenodd"></path></symbol></defs><use xlink:href="#ic-profile" fill="#B2C0CC"></use></svg>